# xmcd
#
# Track frame offsets:
#	150
#	17662
#	34169
#	49631
#	66095
#	78195
#	91402
#	108131
#	122436
#	138173
#	150620
#
# Disc length: 2179 seconds
#
# Revision: 0
# Processed by: cddbd v1.5.1PL2 Copyright (c) Steve Scherf et al.
# Submitted via: dBpowerAMP V4.0
#
DISCID=7a08810b
DTITLE=Shelley Lane - Skipping Stones
DYEAR=2001
DGENRE=Country
TTITLE0=I Need Your Love
TTITLE1=Skipping Stones
TTITLE2=Blackbird
TTITLE3=It Just Feels That Way
TTITLE4=Ain`t it Just Like Love
TTITLE5=Give it Up
TTITLE6=Not This Time
TTITLE7=We Love and We Learn
TTITLE8=Fast Train
TTITLE9=Get Back Home
TTITLE10=No Easy Way to Say Goodbye
EXTD=
EXTT0=
EXTT1=
EXTT2=
EXTT3=
EXTT4=
EXTT5=
EXTT6=
EXTT7=
EXTT8=
EXTT9=
EXTT10=
PLAYORDER=
